name Walk4_EMG.mot
datacolumns 17
datarows 30
range 2.48200000 2.51100000
endheader
                time	            vasmed_r	            vaslat_r	            recfem_r	               gra_r	               sar_r	            tibant_r	           perlong_r	            addmag_r	           semimem_r	          bicfemlh_r	            gasmed_r	            gaslat_r	               sol_r	               tfl_r	              gmed_r	              gmax_r	
          2.48200000	          0.25800038	          0.31382853	          0.31815408	          0.08855824	          0.11895754	          0.49664727	          0.05710747	          0.72901847	          0.08481903	          0.22272101	          0.39398327	          0.25608829	          0.55721647	          0.23091178	          0.49280944	          0.41501515	
          2.48300000	          0.25344784	          0.31891232	          0.31410467	          0.08578792	          0.12839503	          0.49366743	          0.05739095	          0.71407964	          0.08359660	          0.21785355	          0.38978914	          0.25336243	          0.55738541	          0.23087415	          0.49759703	          0.41324804	
          2.48400000	          0.24887787	          0.32429258	          0.31031283	          0.08331431	          0.13832125	          0.49060175	          0.05766178	          0.69928229	          0.08263553	          0.21324800	          0.38559415	          0.25052888	          0.55793143	          0.23115156	          0.50260937	          0.41138578	
          2.48500000	          0.24429888	          0.32992944	          0.30680323	          0.08113292	          0.14870035	          0.48744385	          0.05791900	          0.68465842	          0.08193818	          0.20889534	          0.38140883	          0.24759849	          0.55883605	          0.23174433	          0.50783755	          0.40942298	
          2.48600000	          0.23971930	          0.33578012	          0.30359456	          0.07923801	          0.15949559	          0.48418767	          0.05816157	          0.67023527	          0.08150388	          0.20478564	          0.37724426	          0.24458291	          0.56007837	          0.23264805	          0.51326426	          0.40735375	
          2.48700000	          0.23514809	          0.34180028	          0.30070027	          0.07762214	          0.17066907	          0.48082853	          0.05838815	          0.65603470	          0.08132890	          0.20090830	          0.37311317	          0.24149555	          0.56163246	          0.23385397	          0.51886508	          0.40517130	
          2.48800000	          0.23059451	          0.34794527	          0.29812995	          0.07627611	          0.18218067	          0.47736244	          0.05859704	          0.64207424	          0.08140650	          0.19725236	          0.36903004	          0.23835176	          0.56346730	          0.23534926	          0.52461190	          0.40286784	
          2.48900000	          0.22606745	          0.35417063	          0.29589047	          0.07518897	          0.19398791	          0.47378511	          0.05878619	          0.62836861	          0.08172745	          0.19380646	          0.36500970	          0.23516886	          0.56554939	          0.23711766	          0.53047763	          0.40043495	
          2.49000000	          0.22157516	          0.36043240	          0.29398593	          0.07434809	          0.20604735	          0.47009336	          0.05895332	          0.61493076	          0.08228078	          0.19055865	          0.36106696	          0.23196538	          0.56784422	          0.23914054	          0.53643827	          0.39786515	
          2.49100000	          0.21712546	          0.36668734	          0.29241760	          0.07373976	          0.21831683	          0.46629044	          0.05909608	          0.60177228	          0.08305417	          0.18749625	          0.35721674	          0.22875979	          0.57031754	          0.24139755	          0.54247124	          0.39515564	
          2.49200000	          0.21272572	          0.37289241	          0.29118592	          0.07334981	          0.23075678	          0.46239083	          0.05921215	          0.58890256	          0.08403401	          0.18460648	          0.35347405	          0.22557004	          0.57293926	          0.24386711	          0.54855383	          0.39231191	
          2.49300000	          0.20838244	          0.37900414	          0.29029299	          0.07316390	          0.24333058	          0.45841774	          0.05929927	          0.57632732	          0.08520565	          0.18187774	          0.34985478	          0.22241509	          0.57568648	          0.24652768	          0.55466343	          0.38934707	
          2.49400000	          0.20410107	          0.38497861	          0.28974353	          0.07316728	          0.25600429	          0.45439576	          0.05935522	          0.56404793	          0.08655381	          0.17930069	          0.34637671	          0.21931676	          0.57854321	          0.24935878	          0.56077860	          0.38627755	
          2.49500000	          0.19988647	          0.39077166	          0.28954410	          0.07334451	          0.26874577	          0.45034603	          0.05937778	          0.55206211	          0.08806323	          0.17686809	          0.34305793	          0.21629860	          0.58149854	          0.25234073	          0.56687973	          0.38311930	
          2.49600000	          0.19574359	          0.39633929	          0.28970071	          0.07367954	          0.28152365	          0.44628508	          0.05936472	          0.54036493	          0.08971900	          0.17457366	          0.33991393	          0.21338265	          0.58454311	          0.25545400	          0.57294707	          0.37988644	
          2.49700000	          0.19167782	          0.40163831	          0.29021589	          0.07415614	          0.29430758	          0.44222503	          0.05931405	          0.52894950	          0.09150643	          0.17241138	          0.33695571	          0.21058737	          0.58766568	          0.25867845	          0.57895711	          0.37659257	
          2.49800000	          0.18769431	          0.40662754	          0.29108747	          0.07475846	          0.30706977	          0.43817491	          0.05922436	          0.51780805	          0.09341049	          0.17037505	          0.33418928	          0.20792706	          0.59085099	          0.26199250	          0.58488060	          0.37325403	
          2.49900000	          0.18379721	          0.41126911	          0.29230867	          0.07547180	          0.31978613	          0.43414344	          0.05909508	          0.50693297	          0.09541553	          0.16845771	          0.33161580	          0.20541233	          0.59407852	          0.26537290	          0.59068384	          0.36989172	
          2.50000000	          0.17998937	          0.41552961	          0.29386928	          0.07628282	          0.33243597	          0.43014260	          0.05892669	          0.49631661	          0.09750522	          0.16665141	          0.32923231	          0.20305169	          0.59732208	          0.26879551	          0.59633109	          0.36652907	
          2.50100000	          0.17627282	          0.41938161	          0.29575762	          0.07717915	          0.34500027	          0.42619045	          0.05872114	          0.48595046	          0.09966282	          0.16494758	          0.32703377	          0.20085275	          0.60055076	          0.27223614	          0.60178595	          0.36318845	
          2.50200000	          0.17264950	          0.42280446	          0.29796118	          0.07814889	          0.35746027	          0.42231100	          0.05848259	          0.47582507	          0.10187188	          0.16333712	          0.32501566	          0.19882250	          0.60373028	          0.27567048	          0.60701148	          0.35988955	
          2.50300000	          0.16912238	          0.42578294	          0.30046472	          0.07918081	          0.36979670	          0.41853260	          0.05821736	          0.46593083	          0.10411654	          0.16181040	          0.32317456	          0.19696818	          0.60682416	          0.27907369	          0.61197049	          0.35665013	
          2.50400000	          0.16569568	          0.42830467	          0.30324865	          0.08026522	          0.38199048	          0.41488734	          0.05793256	          0.45625856	          0.10638139	          0.16035777	          0.32150593	          0.19529883	          0.60979501	          0.28242072	          0.61662631	          0.35348645	
          2.50500000	          0.16237406	          0.43035875	          0.30629042	          0.08139439	          0.39402625	          0.41140781	          0.05763479	          0.44679981	          0.10865114	          0.15897039	          0.32000212	          0.19382518	          0.61260596	          0.28568657	          0.62094290	          0.35041220	
          2.50600000	          0.15916160	          0.43193691	          0.30956775	          0.08256228	          0.40589581	          0.40812129	          0.05732971	          0.43754725	          0.11091057	          0.15764052	          0.31865240	          0.19255716	          0.61522140	          0.28884594	          0.62488506	          0.34743780	
          2.50700000	          0.15606172	          0.43303619	          0.31306016	          0.08376427	          0.41759652	          0.40504662	          0.05702223	          0.42849477	          0.11314448	          0.15636181	          0.31744426	          0.19150102	          0.61760667	          0.29187312	          0.62842003	          0.34457274	
          2.50800000	          0.15307772	          0.43366019	          0.31674811	          0.08499713	          0.42912678	          0.40219471	          0.05671655	          0.41963748	          0.11533766	          0.15512985	          0.31636486	          0.19065829	          0.61972769	          0.29474227	          0.63151945	          0.34183164	
          2.50900000	          0.15021368	          0.43381790	          0.32061202	          0.08625872	          0.44048244	          0.39957014	          0.05641607	          0.41097178	          0.11747529	          0.15394223	          0.31540241	          0.19002635	          0.62155206	          0.29742801	          0.63415904	          0.33924046	
          2.51000000	          0.14747556	          0.43352430	          0.32463164	          0.08754774	          0.45165437	          0.39717233	          0.05612328	          0.40249524	          0.11954321	          0.15279773	          0.31454737	          0.18960017	          0.62305115	          0.29990607	          0.63631660	          0.33683677	
          2.51100000	          0.14487125	          0.43280320	          0.32878468	          0.08886410	          0.46262721	          0.39499612	          0.05584003	          0.39420572	          0.12152801	          0.15169586	          0.31379301	          0.18937478	          0.62420101	          0.30215391	          0.63797088	          0.33466220	
